<?xml version="1.0" encoding="utf-8"?>
<!-- Generator: Adobe Illustrator 21.0.2, SVG Export Plug-In . SVG Version: 6.00 Build 0)  -->
<svg version="1.1" id="Layer_1" xmlns="http://www.w3.org/2000/svg" xmlns:xlink="http://www.w3.org/1999/xlink" x="0px" y="0px"
	 viewBox="0 0 377.6 377.6" style="enable-background:new 0 0 377.6 377.6;" xml:space="preserve">
<style type="text/css">
	.st0{opacity:0.4;fill:#231F20;enable-background:new    ;}
</style>
<path id="Layer_1_1_" class="st0" d="M188.8,10.5c-98.5,0-178.3,79.8-178.3,178.3s79.8,178.3,178.3,178.3s178.3-79.8,178.3-178.3
	S287.2,10.5,188.8,10.5z M188.8,338.8c-82.9,0-150-67.2-150-150c0-82.9,67.2-150,150-150s150,67.2,150,150c0,0,0,0,0,0
	C338.8,271.6,271.6,338.8,188.8,338.8L188.8,338.8z"/>
<path id="Layer_3" class="st0" d="M166.7,238.4l-0.7-8.8c-2-18.4,4.1-38.4,21.1-58.8c15.3-18,23.8-31.3,23.8-46.6
	c0-17.3-10.9-28.9-32.3-29.3c-12.3,0-25.8,4.1-34.3,10.5l-8.2-21.4c11.2-8.2,30.6-13.6,48.6-13.6c39.1,0,56.8,24.1,56.8,50
	c0,23.1-12.9,39.8-29.3,59.2c-14.9,17.7-20.4,32.6-19.3,50l0.3,8.8H166.7z M159.2,286c0-12.6,8.5-21.4,20.4-21.4s20.1,8.8,20.1,21.4
	c0,11.9-7.8,21.1-20.4,21.1C167.4,307.1,159.2,297.9,159.2,286z"/>
</svg>
